<?xml version="1.0" encoding="utf-8"?>
<!-- Generator: Adobe Illustrator 20.0.0, SVG Export Plug-In . SVG Version: 6.00 Build 0)  -->
<svg version="1.1" id="pay4coins" xmlns="http://www.w3.org/2000/svg" xmlns:xlink="http://www.w3.org/1999/xlink" x="0px" y="0px"
	 viewBox="0 0 234.5 47.3" style="enable-background:new 0 0 234.5 47.3;" xml:space="preserve">
<style type="text/css">
	.st0{fill:#222222;}
	.st1{fill:#4297D7;}
</style>
<title>Pay4Coins</title>
<g id="E1">
	<g id="E1K">
		<path class="st0" d="M24.1,24.5c0.1,3.5-0.9,6.9-2.8,9.8c-2,3-5.4,4.8-9,4.7c-1.8,0-3.6-0.4-5.3-1.2c-1.6-0.8-3-1.9-4-3.3v12.7H0
			V10.8h3v4c1-1.4,2.4-2.6,4-3.4c1.6-0.8,3.4-1.3,5.3-1.2c3.6-0.1,7,1.7,9,4.6v-0.1C23.2,17.6,24.2,21,24.1,24.5z M21.1,24.5
			c0.1-2.8-0.6-5.5-2.1-7.9c-1.5-2.3-4-3.6-6.7-3.5C9.6,13,7,14.3,5.4,16.6S2.9,21.7,3,24.5c-0.1,2.9,0.6,5.7,2.2,8.1
			c1.6,2.3,4.3,3.5,7.1,3.4c2.7,0.1,5.3-1.2,6.7-3.5C20.5,30.1,21.2,27.3,21.1,24.5L21.1,24.5z"/>
		<path class="st0" d="M49.1,34.3L49.1,34.3c-0.1,0.1-0.1,0.2-0.2,0.2c-2.2,2.9-5.7,4.6-9.3,4.5c-3.7,0.1-7.2-1.6-9.4-4.5
			c-2.1-2.9-3.2-6.4-3-9.9c-0.1-3.6,1-7.1,3.1-9.9c2.2-2.9,5.7-4.6,9.4-4.5c1.8,0,3.6,0.4,5.3,1.2c1.6,0.9,3,2.1,4.1,3.5v-4.2h3
			v27.7h-3C49.1,38.4,49.1,34.3,49.1,34.3z M49.1,24.6c0.1-2.8-0.8-5.6-2.4-7.9c-1.6-2.2-4.2-3.5-7-3.5c-2.8-0.1-5.4,1.2-7,3.5
			c-1.7,2.3-2.6,5.1-2.5,7.9c-0.1,2.9,0.8,5.7,2.5,8c1.6,2.3,4.3,3.5,7,3.4c2.8,0.1,5.4-1.2,7-3.5C48.3,30.2,49.2,27.4,49.1,24.6z"
			/>
		<path class="st0" d="M80,10.8L67.8,43c-0.5,1.6-1.7,2.9-3.2,3.6c-1.8,0.5-3.6,0.8-5.5,0.6v-3c2.5,0,4-0.2,4.7-0.7
			c0.7-0.6,1.2-1.4,1.5-2.2c0.2-0.5,0.3-0.9,0.5-1.4c0.1-0.4,0.3-0.9,0.5-1.3c0.1-0.5,0.3-1,0.5-1.5c-0.9-2.1-1.8-4.3-2.7-6.5
			L61.3,24l-2.8-6.7c-0.9-2.2-1.8-4.4-2.7-6.5H59l9.4,22.5c1.4-3.8,2.8-7.6,4.3-11.3s2.8-7.5,4.3-11.3h3V10.8z"/>
		<path class="st1" d="M119.6,29.6h-6.1v8.9h-3v-8.9h-17v-2.5l17.3-24.7h2.7v24.1h6.1V29.6z M110.5,26.6v-4.8c0-1.5,0-3,0-4.4
			s0-2.9,0-4.4V8c-1.1,1.6-2.2,3.2-3.3,4.7l-3.2,4.6l-3.2,4.6l-3.4,4.8L110.5,26.6z"/>
		<path class="st0" d="M146.8,29c-0.2,2.8-1.4,5.4-3.5,7.3c-2.1,1.9-4.9,2.8-7.7,2.7c-3.5,0.1-6.8-1.4-9-4.2s-3.3-6.2-3.1-9.7
			c-0.2-3.8,0.9-7.5,3.1-10.6c2.3-3,5.9-4.7,9.6-4.5c2.6-0.1,5,0.8,7,2.4c1.9,1.7,3.1,4,3.3,6.6h-1.1c-0.3-2.2-1.4-4.3-3.1-5.8
			c-1.7-1.5-3.9-2.2-6.2-2.1c-3.5-0.2-6.8,1.4-8.9,4.3c-2,2.9-3,6.3-2.8,9.8c-0.1,3.2,0.9,6.3,2.8,8.9c2,2.6,5,4,8.3,3.9
			c2.6,0.1,5.1-0.8,7-2.5c1.9-1.6,3-4,3.1-6.5H146.8z"/>
		<path class="st0" d="M175.7,24.6c0.1,3.6-1,7.1-3.1,10c-4,5.1-11.4,6-16.5,2c-0.7-0.6-1.4-1.2-2-2c-2.1-2.9-3.2-6.4-3.1-10
			c-0.1-3.6,1-7.1,3.1-10c2.2-2.9,5.6-4.5,9.2-4.4c3.6-0.1,7,1.6,9.2,4.5C174.7,17.5,175.8,21,175.7,24.6z M174.6,24.6
			c0.1-3.3-0.9-6.5-2.8-9.2c-3.6-4.7-10.2-5.5-14.9-2c-0.7,0.6-1.4,1.2-2,2c-2,2.7-3,5.9-2.9,9.2c-0.1,3.3,0.9,6.6,2.8,9.3
			c2,2.7,5.1,4.3,8.5,4.2c3.3,0.1,6.5-1.4,8.4-4.2C173.7,31.1,174.7,27.9,174.6,24.6L174.6,24.6z"/>
		<path class="st0" d="M181.6,5.4h-1.1V0h1.1V5.4z M181.6,38.4h-1.1V10.8h1.1V38.4z"/>
		<path class="st0" d="M208.7,38.4h-1.1V20.3c0.1-2.4-0.7-4.8-2.3-6.6c-1.7-1.7-4-2.6-6.4-2.4c-2.9-0.1-5.7,1.2-7.5,3.5
			c-1.7,2.3-2.6,5.1-2.5,8v15.7h-1.1V10.8h1.1v6.8h0.1c0.5-2.2,1.7-4.1,3.5-5.5c1.8-1.3,4-2,6.3-2c2.7-0.1,5.2,0.8,7.1,2.7
			c1.8,2,2.7,4.6,2.6,7.3L208.7,38.4z"/>
		<path class="st0" d="M234.5,31.4c0.1,2.4-1.2,4.6-3.2,5.9s-4.3,1.9-6.7,1.8c-7.4,0-11.1-3.4-11.1-10.1h1.1c0,6,3.3,9.1,10,9.1
			c2.1,0.1,4.1-0.5,5.9-1.5c1.8-1,3-2.9,2.9-5c0-2.7-1.6-4.6-4.9-5.7l-9.1-2.3c-3.3-1.2-4.9-3.4-4.9-6.4c-0.1-2.2,1.1-4.2,3-5.3
			s4.1-1.7,6.2-1.6c6.6,0,9.9,2.9,9.9,8.8h-1.1c0-5.2-3-7.7-8.9-7.7c-1.9-0.1-3.8,0.4-5.4,1.3c-1.7,0.9-2.8,2.6-2.8,4.6
			c0,2.6,1.6,4.5,4.9,5.6c3,0.8,6,1.6,9.1,2.4C232.8,26.3,234.5,28.4,234.5,31.4z"/>
		<rect x="85.4" y="2.4" class="st1" width="2.4" height="44.6"/>
	</g>
</g>
</svg>
